<svg width="25" height="25" viewBox="0 0 25 25" fill="none" xmlns="http://www.w3.org/2000/svg">
<path fill-rule="evenodd" clip-rule="evenodd" d="M1.56208 12.5C1.56208 12.2928 1.64439 12.0941 1.7909 11.9476C1.93742 11.8011 2.13613 11.7187 2.34333 11.7187L20.7699 11.7187L15.8527 6.80312C15.7801 6.73048 15.7224 6.64425 15.6831 6.54934C15.6438 6.45444 15.6236 6.35272 15.6236 6.24999C15.6236 6.14727 15.6438 6.04555 15.6831 5.95065C15.7224 5.85574 15.7801 5.76951 15.8527 5.69687C15.9253 5.62423 16.0116 5.56661 16.1065 5.5273C16.2014 5.48799 16.3031 5.46776 16.4058 5.46776C16.5086 5.46776 16.6103 5.48799 16.7052 5.5273C16.8001 5.56661 16.8863 5.62423 16.959 5.69687L23.209 11.9469C23.2817 12.0194 23.3394 12.1057 23.3788 12.2006C23.4182 12.2955 23.4385 12.3972 23.4385 12.5C23.4385 12.6028 23.4182 12.7045 23.3788 12.7994C23.3394 12.8943 23.2817 12.9805 23.209 13.0531L16.959 19.3031C16.8863 19.3758 16.8001 19.4334 16.7052 19.4727C16.6103 19.512 16.5086 19.5322 16.4058 19.5322C16.3031 19.5322 16.2014 19.512 16.1065 19.4727C16.0116 19.4334 15.9253 19.3758 15.8527 19.3031C15.7801 19.2305 15.7224 19.1442 15.6831 19.0493C15.6438 18.9544 15.6236 18.8527 15.6236 18.75C15.6236 18.6473 15.6438 18.5456 15.6831 18.4506C15.7224 18.3557 15.7801 18.2695 15.8527 18.1969L20.7699 13.2812L2.34333 13.2812C2.13613 13.2812 1.93742 13.1989 1.7909 13.0524C1.64439 12.9059 1.56208 12.7072 1.56208 12.5Z" fill="black"/>
<path fill-rule="evenodd" clip-rule="evenodd" d="M1.56208 12.5C1.56208 12.2928 1.64439 12.0941 1.7909 11.9476C1.93742 11.8011 2.13613 11.7187 2.34333 11.7187L20.7699 11.7187L15.8527 6.80312C15.7801 6.73048 15.7224 6.64425 15.6831 6.54934C15.6438 6.45444 15.6236 6.35272 15.6236 6.24999C15.6236 6.14727 15.6438 6.04555 15.6831 5.95065C15.7224 5.85574 15.7801 5.76951 15.8527 5.69687C15.9253 5.62423 16.0116 5.56661 16.1065 5.5273C16.2014 5.48799 16.3031 5.46776 16.4058 5.46776C16.5086 5.46776 16.6103 5.48799 16.7052 5.5273C16.8001 5.56661 16.8863 5.62423 16.959 5.69687L23.209 11.9469C23.2817 12.0194 23.3394 12.1057 23.3788 12.2006C23.4182 12.2955 23.4385 12.3972 23.4385 12.5C23.4385 12.6028 23.4182 12.7045 23.3788 12.7994C23.3394 12.8943 23.2817 12.9805 23.209 13.0531L16.959 19.3031C16.8863 19.3758 16.8001 19.4334 16.7052 19.4727C16.6103 19.512 16.5086 19.5322 16.4058 19.5322C16.3031 19.5322 16.2014 19.512 16.1065 19.4727C16.0116 19.4334 15.9253 19.3758 15.8527 19.3031C15.7801 19.2305 15.7224 19.1442 15.6831 19.0493C15.6438 18.9544 15.6236 18.8527 15.6236 18.75C15.6236 18.6473 15.6438 18.5456 15.6831 18.4506C15.7224 18.3557 15.7801 18.2695 15.8527 18.1969L20.7699 13.2812L2.34333 13.2812C2.13613 13.2812 1.93742 13.1989 1.7909 13.0524C1.64439 12.9059 1.56208 12.7072 1.56208 12.5Z" fill="white"/>
<path fill-rule="evenodd" clip-rule="evenodd" d="M1.56208 12.5C1.56208 12.2928 1.64439 12.0941 1.7909 11.9476C1.93742 11.8011 2.13613 11.7187 2.34333 11.7187L20.7699 11.7187L15.8527 6.80312C15.7801 6.73048 15.7224 6.64425 15.6831 6.54934C15.6438 6.45444 15.6236 6.35272 15.6236 6.24999C15.6236 6.14727 15.6438 6.04555 15.6831 5.95065C15.7224 5.85574 15.7801 5.76951 15.8527 5.69687C15.9253 5.62423 16.0116 5.56661 16.1065 5.5273C16.2014 5.48799 16.3031 5.46776 16.4058 5.46776C16.5086 5.46776 16.6103 5.48799 16.7052 5.5273C16.8001 5.56661 16.8863 5.62423 16.959 5.69687L23.209 11.9469C23.2817 12.0194 23.3394 12.1057 23.3788 12.2006C23.4182 12.2955 23.4385 12.3972 23.4385 12.5C23.4385 12.6028 23.4182 12.7045 23.3788 12.7994C23.3394 12.8943 23.2817 12.9805 23.209 13.0531L16.959 19.3031C16.8863 19.3758 16.8001 19.4334 16.7052 19.4727C16.6103 19.512 16.5086 19.5322 16.4058 19.5322C16.3031 19.5322 16.2014 19.512 16.1065 19.4727C16.0116 19.4334 15.9253 19.3758 15.8527 19.3031C15.7801 19.2305 15.7224 19.1442 15.6831 19.0493C15.6438 18.9544 15.6236 18.8527 15.6236 18.75C15.6236 18.6473 15.6438 18.5456 15.6831 18.4506C15.7224 18.3557 15.7801 18.2695 15.8527 18.1969L20.7699 13.2812L2.34333 13.2812C2.13613 13.2812 1.93742 13.1989 1.7909 13.0524C1.64439 12.9059 1.56208 12.7072 1.56208 12.5Z" fill="#2B2A29"/>
</svg>
